<svg width="254" height="105" viewBox="0 0 254 105" fill="none" xmlns="http://www.w3.org/2000/svg">
<path d="M0.903488 28.2621C0.903488 13.0986 13.1959 0.804279 28.3593 0.804279H225.593C240.756 0.804279 253.048 13.0986 253.048 28.2621V28.3604V28.4587V28.5569V28.655V28.7531V28.8512V28.9492V29.0472V29.1451V29.2429V29.3408V29.4385V29.5363V29.6339V29.7316V29.8291V29.9267V30.0242V30.1216V30.219V30.3164V30.4137V30.511V30.6082V30.7054V30.8025V30.8996V30.9966V31.0936V31.1906V31.2875V31.3843V31.4812V31.5779V31.6747V31.7714V31.868V31.9646V32.0612V32.1577V32.2542V32.3507V32.4471V32.5434V32.6397V32.736V32.8322V32.9284V33.0246V33.1207V33.2168V33.3128V33.4088V33.5048V33.6007V33.6966V33.7924V33.8882V33.984V34.0797V34.1754V34.2711V34.3667V34.4623V34.5578V34.6533V34.7488V34.8442V34.9396V35.035V35.1303V35.2256V35.3208V35.416V35.5112V35.6064V35.7015V35.7966V35.8916V35.9866V36.0816V36.1765V36.2714V36.3663V36.4611V36.5559V36.6507V36.7454V36.8402V36.9348V37.0295V37.1241V37.2187V37.3132V37.4077V37.5022V37.5967V37.6911V37.7855V37.8799V37.9742V38.0685V38.1628V38.257V38.3512V38.4454V38.5396V38.6337V38.7278V38.8219V38.9159V39.0099V39.1039V39.1979V39.2918V39.3857V39.4796V39.5735V39.6673V39.7611V39.8548V39.9486V40.0423V40.136V40.2297V40.3233V40.4169V40.5105V40.6041V40.6976V40.7912V40.8847V40.9781V41.0716V41.165V41.2584V41.3518V41.4451V41.5385V41.6318V41.7251V41.8183V41.9116V42.0048V42.098V42.1912V42.2843V42.3775V42.4706V42.5637V42.6567V42.7498V42.8428V42.9358V43.0288V43.1218V43.2148V43.3077V43.4006V43.4935V43.5864V43.6793V43.7721V43.8649V43.9577V44.0505V44.1433V44.2361V44.3288V44.4215V44.5142V44.6069V44.6996V44.7922V44.8849V44.9775V45.0701V45.1627V45.2553V45.3478V45.4404V45.5329V45.6255V45.718V45.8104V45.9029V45.9954V46.0878V46.1803V46.2727V46.3651V46.4575V46.5499V46.6423V46.7346V46.827V46.9193V47.0117V47.104V47.1963V47.2886V47.3809V47.4732V47.5654V47.6577V47.7499V47.8422V47.9344V48.0266V48.1188V48.211V48.3032V48.3954V48.4875V48.5797V48.6719V48.764V48.8562V48.9483V49.0404V49.1325V49.2247V49.3168V49.4089V49.501V49.593V49.6851V49.7772V49.8693V49.9613V50.0534V50.1455V50.2375V50.3296V50.4216V50.5136V50.6057V50.6977V50.7897V50.8818V50.9738V51.0658V51.1578V51.2498V51.3418V51.4339V51.5259V51.6179V51.7099V51.8019V51.8939V51.9859V52.0779V52.1699V52.2619V52.3539V52.4459V52.5379V52.6299V52.7219V52.8139V52.9059V52.9979V53.0899V53.1819V53.2739V53.3659V53.4579V53.5499V53.6419V53.734V53.826V53.918V54.01V54.1021V54.1941V54.2861V54.3782V54.4702V54.5623V54.6543V54.7464V54.8385V54.9305V55.0226V55.1147V55.2068V55.2989V55.391V55.4831V55.5752V55.6673V55.7595V55.8516V55.9437V56.0359V56.128V56.2202V56.3124V56.4046V56.4967V56.5889V56.6811V56.7734V56.8656V56.9578V57.0501V57.1423V57.2346V57.3269V57.4192V57.5114V57.6038V57.6961V57.7884V57.8807V57.9731V58.0655V58.1578V58.2502V58.3426V58.435V58.5275V58.6199V58.7124V58.8048V58.8973V58.9898V59.0823V59.1748V59.2673V59.3599V59.4525V59.545V59.6376V59.7302V59.8229V59.9155V60.0082V60.1008V60.1935V60.2862V60.379V60.4717V60.5644V60.6572V60.75V60.8428V60.9356V61.0285V61.1213V61.2142V61.3071V61.4V61.493V61.5859V61.6789V61.7719V61.8649V61.9579V62.051V62.1441V62.2372V62.3303V62.4234V62.5166V62.6097V62.7029V62.7962V62.8894V62.9827V63.076V63.1693V63.2626V63.356V63.4493V63.5427V63.6362V63.7296V63.8231V63.9166V64.0101V64.1036V64.1972V64.2908V64.3844V64.4781V64.5717V64.6654V64.7591V64.8529V64.9467V65.0405V65.1343V65.2281V65.322V65.4159V65.5099V65.6038V65.6978V65.7918V65.8859V65.9799V66.074V66.1682V66.2623V66.3565V66.4507V66.545V66.6392V66.7335V66.8279V66.9222V67.0166V67.1111V67.2055V67.3V67.3945V67.4891V67.5837V67.6783V67.7729V67.8676V67.9623V68.057V68.1518V68.2466V68.3415V68.4363V68.5312V68.6262V68.7211V68.8162V68.9112V69.0063V69.1014V69.1965V69.2917V69.3869V69.4822V69.5775V69.6728V69.7681V69.8635V69.959V70.0544V70.1499V70.2455V70.341V70.4367V70.5323V70.628V70.7237V70.8195V70.9153V71.0111V71.107V71.2029V71.2989V71.3949V71.4909V71.587V71.6831V71.7793V71.8755V71.9717V72.068V72.1643V72.2607V72.3571V72.4535V72.55V72.6465V72.7431V72.8397V72.9364V73.0331V73.1298V73.2266V73.3234V73.4203V73.5172V73.6141V73.7111V73.8082V73.9053V74.0024V74.0996V74.1968V74.2941V74.3914V74.4887V74.5861V74.6836V74.7811V74.8786V74.9762V75.0738V75.1715V75.2692V75.367V75.4648V75.5627V75.6606V75.7586V75.8566V75.9546V76.0527V76.1509V76.2491V76.3473V76.4456C253.048 91.6091 240.756 103.903 225.592 103.903H28.3592C13.1959 103.903 0.903488 91.6091 0.903488 76.4457V76.3474V76.2491V76.1509V76.0527V75.9546V75.8566V75.7586V75.6606V75.5627V75.4648V75.367V75.2692V75.1715V75.0738V74.9762V74.8786V74.7811V74.6836V74.5861V74.4887V74.3914V74.2941V74.1968V74.0996V74.0024V73.9053V73.8082V73.7111V73.6141V73.5172V73.4203V73.3234V73.2266V73.1298V73.0331V72.9364V72.8397V72.7431V72.6466V72.55V72.4535V72.3571V72.2607V72.1643V72.068V71.9717V71.8755V71.7793V71.6832V71.587V71.491V71.3949V71.2989V71.203V71.107V71.0112V70.9153V70.8195V70.7237V70.628V70.5323V70.4367V70.3411V70.2455V70.1499V70.0544V69.959V69.8635V69.7681V69.6728V69.5775V69.4822V69.3869V69.2917V69.1965V69.1014V69.0063V68.9112V68.8162V68.7212V68.6262V68.5312V68.4363V68.3415V68.2466V68.1518V68.057V67.9623V67.8676V67.7729V67.6783V67.5837V67.4891V67.3945V67.3V67.2055V67.1111V67.0166V66.9222V66.8279V66.7336V66.6393V66.545V66.4507V66.3565V66.2623V66.1682V66.074V65.9799V65.8859V65.7918V65.6978V65.6038V65.5099V65.4159V65.322V65.2281V65.1343V65.0405V64.9467V64.8529V64.7592V64.6654V64.5717V64.4781V64.3844V64.2908V64.1972V64.1036V64.0101V63.9166V63.8231V63.7296V63.6362V63.5427V63.4493V63.356V63.2626V63.1693V63.076V62.9827V62.8894V62.7962V62.703V62.6098V62.5166V62.4234V62.3303V62.2372V62.1441V62.051V61.958V61.8649V61.7719V61.6789V61.5859V61.493V61.4V61.3071V61.2142V61.1213V61.0285V60.9356V60.8428V60.75V60.6572V60.5645V60.4717V60.379V60.2862V60.1935V60.1008V60.0082V59.9155V59.8229V59.7303V59.6376V59.5451V59.4525V59.3599V59.2674V59.1748V59.0823V58.9898V58.8973V58.8048V58.7124V58.6199V58.5275V58.435V58.3426V58.2502V58.1578V58.0655V57.9731V57.8808V57.7884V57.6961V57.6038V57.5115V57.4192V57.3269V57.2346V57.1423V57.0501V56.9578V56.8656V56.7734V56.6812V56.589V56.4967V56.4046V56.3124V56.2202V56.128V56.0359V55.9437V55.8516V55.7595V55.6673V55.5752V55.4831V55.391V55.2989V55.2068V55.1147V55.0226V54.9305V54.8385V54.7464V54.6544V54.5623V54.4702V54.3782V54.2861V54.1941V54.1021V54.01V53.918V53.826V53.734V53.6419V53.5499V53.4579V53.3659V53.2739V53.1819V53.0899V52.9979V52.9059V52.8139V52.7219V52.6299V52.5379V52.4459V52.3539V52.2619V52.1699V52.0779V51.9859V51.8939V51.8019V51.7099V51.6179V51.5259V51.4339V51.3419V51.2498V51.1578V51.0658V50.9738V50.8818V50.7897V50.6977V50.6057V50.5136V50.4216V50.3296V50.2375V50.1455V50.0534V49.9613V49.8693V49.7772V49.6851V49.5931V49.501V49.4089V49.3168V49.2247V49.1325V49.0404V48.9483V48.8562V48.764V48.6719V48.5797V48.4876V48.3954V48.3032V48.211V48.1188V48.0266V47.9344V47.8422V47.7499V47.6577V47.5654V47.4732V47.3809V47.2886V47.1963V47.104V47.0117V46.9193V46.827V46.7347V46.6423V46.5499V46.4575V46.3651V46.2727V46.1803V46.0879V45.9954V45.9029V45.8105V45.718V45.6255V45.5329V45.4404V45.3479V45.2553V45.1627V45.0701V44.9775V44.8849V44.7922V44.6996V44.6069V44.5142V44.4215V44.3288V44.2361V44.1433V44.0505V43.9577V43.8649V43.7721V43.6793V43.5864V43.4935V43.4006V43.3077V43.2148V43.1218V43.0289V42.9359V42.8428V42.7498V42.6568V42.5637V42.4706V42.3775V42.2843V42.1912V42.098V42.0048V41.9116V41.8183V41.7251V41.6318V41.5385V41.4451V41.3518V41.2584V41.165V41.0716V40.9781V40.8847V40.7912V40.6977V40.6041V40.5105V40.4169V40.3233V40.2297V40.136V40.0423V39.9486V39.8549V39.7611V39.6673V39.5735V39.4796V39.3857V39.2918V39.1979V39.1039V39.0099V38.9159V38.8219V38.7278V38.6337V38.5396V38.4454V38.3512V38.257V38.1628V38.0685V37.9742V37.8799V37.7855V37.6911V37.5967V37.5022V37.4077V37.3132V37.2187V37.1241V37.0295V36.9348V36.8402V36.7455V36.6507V36.5559V36.4611V36.3663V36.2714V36.1765V36.0816V35.9866V35.8916V35.7966V35.7015V35.6064V35.5112V35.416V35.3208V35.2256V35.1303V35.035V34.9396V34.8442V34.7488V34.6533V34.5578V34.4623V34.3667V34.2711V34.1754V34.0797V33.984V33.8882V33.7924V33.6966V33.6007V33.5048V33.4088V33.3128V33.2168V33.1207V33.0246V32.9285V32.8323V32.736V32.6397V32.5434V32.4471V32.3507V32.2542V32.1577V32.0612V31.9646V31.868V31.7714V31.6747V31.5779V31.4812V31.3843V31.2875V31.1906V31.0936V30.9966V30.8996V30.8025V30.7054V30.6082V30.511V30.4137V30.3164V30.219V30.1216V30.0242V29.9267V29.8292V29.7316V29.6339V29.5363V29.4385V29.3408V29.2429V29.1451V29.0472V28.9492V28.8512V28.7531V28.655V28.5569V28.4587V28.3604V28.2621Z" fill="#CA78C2"/>
<path d="M0.903488 28.2621C0.903488 13.0986 13.1959 0.804279 28.3593 0.804279H225.593C240.756 0.804279 253.048 13.0986 253.048 28.2621V28.3604V28.4587V28.5569V28.655V28.7531V28.8512V28.9492V29.0472V29.1451V29.2429V29.3408V29.4385V29.5363V29.6339V29.7316V29.8291V29.9267V30.0242V30.1216V30.219V30.3164V30.4137V30.511V30.6082V30.7054V30.8025V30.8996V30.9966V31.0936V31.1906V31.2875V31.3843V31.4812V31.5779V31.6747V31.7714V31.868V31.9646V32.0612V32.1577V32.2542V32.3507V32.4471V32.5434V32.6397V32.736V32.8322V32.9284V33.0246V33.1207V33.2168V33.3128V33.4088V33.5048V33.6007V33.6966V33.7924V33.8882V33.984V34.0797V34.1754V34.2711V34.3667V34.4623V34.5578V34.6533V34.7488V34.8442V34.9396V35.035V35.1303V35.2256V35.3208V35.416V35.5112V35.6064V35.7015V35.7966V35.8916V35.9866V36.0816V36.1765V36.2714V36.3663V36.4611V36.5559V36.6507V36.7454V36.8402V36.9348V37.0295V37.1241V37.2187V37.3132V37.4077V37.5022V37.5967V37.6911V37.7855V37.8799V37.9742V38.0685V38.1628V38.257V38.3512V38.4454V38.5396V38.6337V38.7278V38.8219V38.9159V39.0099V39.1039V39.1979V39.2918V39.3857V39.4796V39.5735V39.6673V39.7611V39.8548V39.9486V40.0423V40.136V40.2297V40.3233V40.4169V40.5105V40.6041V40.6976V40.7912V40.8847V40.9781V41.0716V41.165V41.2584V41.3518V41.4451V41.5385V41.6318V41.7251V41.8183V41.9116V42.0048V42.098V42.1912V42.2843V42.3775V42.4706V42.5637V42.6567V42.7498V42.8428V42.9358V43.0288V43.1218V43.2148V43.3077V43.4006V43.4935V43.5864V43.6793V43.7721V43.8649V43.9577V44.0505V44.1433V44.2361V44.3288V44.4215V44.5142V44.6069V44.6996V44.7922V44.8849V44.9775V45.0701V45.1627V45.2553V45.3478V45.4404V45.5329V45.6255V45.718V45.8104V45.9029V45.9954V46.0878V46.1803V46.2727V46.3651V46.4575V46.5499V46.6423V46.7346V46.827V46.9193V47.0117V47.104V47.1963V47.2886V47.3809V47.4732V47.5654V47.6577V47.7499V47.8422V47.9344V48.0266V48.1188V48.211V48.3032V48.3954V48.4875V48.5797V48.6719V48.764V48.8562V48.9483V49.0404V49.1325V49.2247V49.3168V49.4089V49.501V49.593V49.6851V49.7772V49.8693V49.9613V50.0534V50.1455V50.2375V50.3296V50.4216V50.5136V50.6057V50.6977V50.7897V50.8818V50.9738V51.0658V51.1578V51.2498V51.3418V51.4339V51.5259V51.6179V51.7099V51.8019V51.8939V51.9859V52.0779V52.1699V52.2619V52.3539V52.4459V52.5379V52.6299V52.7219V52.8139V52.9059V52.9979V53.0899V53.1819V53.2739V53.3659V53.4579V53.5499V53.6419V53.734V53.826V53.918V54.01V54.1021V54.1941V54.2861V54.3782V54.4702V54.5623V54.6543V54.7464V54.8385V54.9305V55.0226V55.1147V55.2068V55.2989V55.391V55.4831V55.5752V55.6673V55.7595V55.8516V55.9437V56.0359V56.128V56.2202V56.3124V56.4046V56.4967V56.5889V56.6811V56.7734V56.8656V56.9578V57.0501V57.1423V57.2346V57.3269V57.4192V57.5114V57.6038V57.6961V57.7884V57.8807V57.9731V58.0655V58.1578V58.2502V58.3426V58.435V58.5275V58.6199V58.7124V58.8048V58.8973V58.9898V59.0823V59.1748V59.2673V59.3599V59.4525V59.545V59.6376V59.7302V59.8229V59.9155V60.0082V60.1008V60.1935V60.2862V60.379V60.4717V60.5644V60.6572V60.75V60.8428V60.9356V61.0285V61.1213V61.2142V61.3071V61.4V61.493V61.5859V61.6789V61.7719V61.8649V61.9579V62.051V62.1441V62.2372V62.3303V62.4234V62.5166V62.6097V62.7029V62.7962V62.8894V62.9827V63.076V63.1693V63.2626V63.356V63.4493V63.5427V63.6362V63.7296V63.8231V63.9166V64.0101V64.1036V64.1972V64.2908V64.3844V64.4781V64.5717V64.6654V64.7591V64.8529V64.9467V65.0405V65.1343V65.2281V65.322V65.4159V65.5099V65.6038V65.6978V65.7918V65.8859V65.9799V66.074V66.1682V66.2623V66.3565V66.4507V66.545V66.6392V66.7335V66.8279V66.9222V67.0166V67.1111V67.2055V67.3V67.3945V67.4891V67.5837V67.6783V67.7729V67.8676V67.9623V68.057V68.1518V68.2466V68.3415V68.4363V68.5312V68.6262V68.7211V68.8162V68.9112V69.0063V69.1014V69.1965V69.2917V69.3869V69.4822V69.5775V69.6728V69.7681V69.8635V69.959V70.0544V70.1499V70.2455V70.341V70.4367V70.5323V70.628V70.7237V70.8195V70.9153V71.0111V71.107V71.2029V71.2989V71.3949V71.4909V71.587V71.6831V71.7793V71.8755V71.9717V72.068V72.1643V72.2607V72.3571V72.4535V72.55V72.6465V72.7431V72.8397V72.9364V73.0331V73.1298V73.2266V73.3234V73.4203V73.5172V73.6141V73.7111V73.8082V73.9053V74.0024V74.0996V74.1968V74.2941V74.3914V74.4887V74.5861V74.6836V74.7811V74.8786V74.9762V75.0738V75.1715V75.2692V75.367V75.4648V75.5627V75.6606V75.7586V75.8566V75.9546V76.0527V76.1509V76.2491V76.3473V76.4456C253.048 91.6091 240.756 103.903 225.592 103.903H28.3592C13.1959 103.903 0.903488 91.6091 0.903488 76.4457V76.3474V76.2491V76.1509V76.0527V75.9546V75.8566V75.7586V75.6606V75.5627V75.4648V75.367V75.2692V75.1715V75.0738V74.9762V74.8786V74.7811V74.6836V74.5861V74.4887V74.3914V74.2941V74.1968V74.0996V74.0024V73.9053V73.8082V73.7111V73.6141V73.5172V73.4203V73.3234V73.2266V73.1298V73.0331V72.9364V72.8397V72.7431V72.6466V72.55V72.4535V72.3571V72.2607V72.1643V72.068V71.9717V71.8755V71.7793V71.6832V71.587V71.491V71.3949V71.2989V71.203V71.107V71.0112V70.9153V70.8195V70.7237V70.628V70.5323V70.4367V70.3411V70.2455V70.1499V70.0544V69.959V69.8635V69.7681V69.6728V69.5775V69.4822V69.3869V69.2917V69.1965V69.1014V69.0063V68.9112V68.8162V68.7212V68.6262V68.5312V68.4363V68.3415V68.2466V68.1518V68.057V67.9623V67.8676V67.7729V67.6783V67.5837V67.4891V67.3945V67.3V67.2055V67.1111V67.0166V66.9222V66.8279V66.7336V66.6393V66.545V66.4507V66.3565V66.2623V66.1682V66.074V65.9799V65.8859V65.7918V65.6978V65.6038V65.5099V65.4159V65.322V65.2281V65.1343V65.0405V64.9467V64.8529V64.7592V64.6654V64.5717V64.4781V64.3844V64.2908V64.1972V64.1036V64.0101V63.9166V63.8231V63.7296V63.6362V63.5427V63.4493V63.356V63.2626V63.1693V63.076V62.9827V62.8894V62.7962V62.703V62.6098V62.5166V62.4234V62.3303V62.2372V62.1441V62.051V61.958V61.8649V61.7719V61.6789V61.5859V61.493V61.4V61.3071V61.2142V61.1213V61.0285V60.9356V60.8428V60.75V60.6572V60.5645V60.4717V60.379V60.2862V60.1935V60.1008V60.0082V59.9155V59.8229V59.7303V59.6376V59.5451V59.4525V59.3599V59.2674V59.1748V59.0823V58.9898V58.8973V58.8048V58.7124V58.6199V58.5275V58.435V58.3426V58.2502V58.1578V58.0655V57.9731V57.8808V57.7884V57.6961V57.6038V57.5115V57.4192V57.3269V57.2346V57.1423V57.0501V56.9578V56.8656V56.7734V56.6812V56.589V56.4967V56.4046V56.3124V56.2202V56.128V56.0359V55.9437V55.8516V55.7595V55.6673V55.5752V55.4831V55.391V55.2989V55.2068V55.1147V55.0226V54.9305V54.8385V54.7464V54.6544V54.5623V54.4702V54.3782V54.2861V54.1941V54.1021V54.01V53.918V53.826V53.734V53.6419V53.5499V53.4579V53.3659V53.2739V53.1819V53.0899V52.9979V52.9059V52.8139V52.7219V52.6299V52.5379V52.4459V52.3539V52.2619V52.1699V52.0779V51.9859V51.8939V51.8019V51.7099V51.6179V51.5259V51.4339V51.3419V51.2498V51.1578V51.0658V50.9738V50.8818V50.7897V50.6977V50.6057V50.5136V50.4216V50.3296V50.2375V50.1455V50.0534V49.9613V49.8693V49.7772V49.6851V49.5931V49.501V49.4089V49.3168V49.2247V49.1325V49.0404V48.9483V48.8562V48.764V48.6719V48.5797V48.4876V48.3954V48.3032V48.211V48.1188V48.0266V47.9344V47.8422V47.7499V47.6577V47.5654V47.4732V47.3809V47.2886V47.1963V47.104V47.0117V46.9193V46.827V46.7347V46.6423V46.5499V46.4575V46.3651V46.2727V46.1803V46.0879V45.9954V45.9029V45.8105V45.718V45.6255V45.5329V45.4404V45.3479V45.2553V45.1627V45.0701V44.9775V44.8849V44.7922V44.6996V44.6069V44.5142V44.4215V44.3288V44.2361V44.1433V44.0505V43.9577V43.8649V43.7721V43.6793V43.5864V43.4935V43.4006V43.3077V43.2148V43.1218V43.0289V42.9359V42.8428V42.7498V42.6568V42.5637V42.4706V42.3775V42.2843V42.1912V42.098V42.0048V41.9116V41.8183V41.7251V41.6318V41.5385V41.4451V41.3518V41.2584V41.165V41.0716V40.9781V40.8847V40.7912V40.6977V40.6041V40.5105V40.4169V40.3233V40.2297V40.136V40.0423V39.9486V39.8549V39.7611V39.6673V39.5735V39.4796V39.3857V39.2918V39.1979V39.1039V39.0099V38.9159V38.8219V38.7278V38.6337V38.5396V38.4454V38.3512V38.257V38.1628V38.0685V37.9742V37.8799V37.7855V37.6911V37.5967V37.5022V37.4077V37.3132V37.2187V37.1241V37.0295V36.9348V36.8402V36.7455V36.6507V36.5559V36.4611V36.3663V36.2714V36.1765V36.0816V35.9866V35.8916V35.7966V35.7015V35.6064V35.5112V35.416V35.3208V35.2256V35.1303V35.035V34.9396V34.8442V34.7488V34.6533V34.5578V34.4623V34.3667V34.2711V34.1754V34.0797V33.984V33.8882V33.7924V33.6966V33.6007V33.5048V33.4088V33.3128V33.2168V33.1207V33.0246V32.9285V32.8323V32.736V32.6397V32.5434V32.4471V32.3507V32.2542V32.1577V32.0612V31.9646V31.868V31.7714V31.6747V31.5779V31.4812V31.3843V31.2875V31.1906V31.0936V30.9966V30.8996V30.8025V30.7054V30.6082V30.511V30.4137V30.3164V30.219V30.1216V30.0242V29.9267V29.8292V29.7316V29.6339V29.5363V29.4385V29.3408V29.2429V29.1451V29.0472V28.9492V28.8512V28.7531V28.655V28.5569V28.4587V28.3604V28.2621Z" stroke="#AD3FD5" stroke-width="1.12064"/>
<path d="M0.903488 28.2621C0.903488 13.0986 13.1959 0.804279 28.3593 0.804279H225.593C240.756 0.804279 253.048 13.0986 253.048 28.2621V28.3604V28.4587V28.5569V28.655V28.7531V28.8512V28.9492V29.0472V29.1451V29.2429V29.3408V29.4385V29.5363V29.6339V29.7316V29.8291V29.9267V30.0242V30.1216V30.219V30.3164V30.4137V30.511V30.6082V30.7054V30.8025V30.8996V30.9966V31.0936V31.1906V31.2875V31.3843V31.4812V31.5779V31.6747V31.7714V31.868V31.9646V32.0612V32.1577V32.2542V32.3507V32.4471V32.5434V32.6397V32.736V32.8322V32.9284V33.0246V33.1207V33.2168V33.3128V33.4088V33.5048V33.6007V33.6966V33.7924V33.8882V33.984V34.0797V34.1754V34.2711V34.3667V34.4623V34.5578V34.6533V34.7488V34.8442V34.9396V35.035V35.1303V35.2256V35.3208V35.416V35.5112V35.6064V35.7015V35.7966V35.8916V35.9866V36.0816V36.1765V36.2714V36.3663V36.4611V36.5559V36.6507V36.7454V36.8402V36.9348V37.0295V37.1241V37.2187V37.3132V37.4077V37.5022V37.5967V37.6911V37.7855V37.8799V37.9742V38.0685V38.1628V38.257V38.3512V38.4454V38.5396V38.6337V38.7278V38.8219V38.9159V39.0099V39.1039V39.1979V39.2918V39.3857V39.4796V39.5735V39.6673V39.7611V39.8548V39.9486V40.0423V40.136V40.2297V40.3233V40.4169V40.5105V40.6041V40.6976V40.7912V40.8847V40.9781V41.0716V41.165V41.2584V41.3518V41.4451V41.5385V41.6318V41.7251V41.8183V41.9116V42.0048V42.098V42.1912V42.2843V42.3775V42.4706V42.5637V42.6567V42.7498V42.8428V42.9358V43.0288V43.1218V43.2148V43.3077V43.4006V43.4935V43.5864V43.6793V43.7721V43.8649V43.9577V44.0505V44.1433V44.2361V44.3288V44.4215V44.5142V44.6069V44.6996V44.7922V44.8849V44.9775V45.0701V45.1627V45.2553V45.3478V45.4404V45.5329V45.6255V45.718V45.8104V45.9029V45.9954V46.0878V46.1803V46.2727V46.3651V46.4575V46.5499V46.6423V46.7346V46.827V46.9193V47.0117V47.104V47.1963V47.2886V47.3809V47.4732V47.5654V47.6577V47.7499V47.8422V47.9344V48.0266V48.1188V48.211V48.3032V48.3954V48.4875V48.5797V48.6719V48.764V48.8562V48.9483V49.0404V49.1325V49.2247V49.3168V49.4089V49.501V49.593V49.6851V49.7772V49.8693V49.9613V50.0534V50.1455V50.2375V50.3296V50.4216V50.5136V50.6057V50.6977V50.7897V50.8818V50.9738V51.0658V51.1578V51.2498V51.3418V51.4339V51.5259V51.6179V51.7099V51.8019V51.8939V51.9859V52.0779V52.1699V52.2619V52.3539V52.4459V52.5379V52.6299V52.7219V52.8139V52.9059V52.9979V53.0899V53.1819V53.2739V53.3659V53.4579V53.5499V53.6419V53.734V53.826V53.918V54.01V54.1021V54.1941V54.2861V54.3782V54.4702V54.5623V54.6543V54.7464V54.8385V54.9305V55.0226V55.1147V55.2068V55.2989V55.391V55.4831V55.5752V55.6673V55.7595V55.8516V55.9437V56.0359V56.128V56.2202V56.3124V56.4046V56.4967V56.5889V56.6811V56.7734V56.8656V56.9578V57.0501V57.1423V57.2346V57.3269V57.4192V57.5114V57.6038V57.6961V57.7884V57.8807V57.9731V58.0655V58.1578V58.2502V58.3426V58.435V58.5275V58.6199V58.7124V58.8048V58.8973V58.9898V59.0823V59.1748V59.2673V59.3599V59.4525V59.545V59.6376V59.7302V59.8229V59.9155V60.0082V60.1008V60.1935V60.2862V60.379V60.4717V60.5644V60.6572V60.75V60.8428V60.9356V61.0285V61.1213V61.2142V61.3071V61.4V61.493V61.5859V61.6789V61.7719V61.8649V61.9579V62.051V62.1441V62.2372V62.3303V62.4234V62.5166V62.6097V62.7029V62.7962V62.8894V62.9827V63.076V63.1693V63.2626V63.356V63.4493V63.5427V63.6362V63.7296V63.8231V63.9166V64.0101V64.1036V64.1972V64.2908V64.3844V64.4781V64.5717V64.6654V64.7591V64.8529V64.9467V65.0405V65.1343V65.2281V65.322V65.4159V65.5099V65.6038V65.6978V65.7918V65.8859V65.9799V66.074V66.1682V66.2623V66.3565V66.4507V66.545V66.6392V66.7335V66.8279V66.9222V67.0166V67.1111V67.2055V67.3V67.3945V67.4891V67.5837V67.6783V67.7729V67.8676V67.9623V68.057V68.1518V68.2466V68.3415V68.4363V68.5312V68.6262V68.7211V68.8162V68.9112V69.0063V69.1014V69.1965V69.2917V69.3869V69.4822V69.5775V69.6728V69.7681V69.8635V69.959V70.0544V70.1499V70.2455V70.341V70.4367V70.5323V70.628V70.7237V70.8195V70.9153V71.0111V71.107V71.2029V71.2989V71.3949V71.4909V71.587V71.6831V71.7793V71.8755V71.9717V72.068V72.1643V72.2607V72.3571V72.4535V72.55V72.6465V72.7431V72.8397V72.9364V73.0331V73.1298V73.2266V73.3234V73.4203V73.5172V73.6141V73.7111V73.8082V73.9053V74.0024V74.0996V74.1968V74.2941V74.3914V74.4887V74.5861V74.6836V74.7811V74.8786V74.9762V75.0738V75.1715V75.2692V75.367V75.4648V75.5627V75.6606V75.7586V75.8566V75.9546V76.0527V76.1509V76.2491V76.3473V76.4456C253.048 91.6091 240.756 103.903 225.592 103.903H28.3592C13.1959 103.903 0.903488 91.6091 0.903488 76.4457V76.3474V76.2491V76.1509V76.0527V75.9546V75.8566V75.7586V75.6606V75.5627V75.4648V75.367V75.2692V75.1715V75.0738V74.9762V74.8786V74.7811V74.6836V74.5861V74.4887V74.3914V74.2941V74.1968V74.0996V74.0024V73.9053V73.8082V73.7111V73.6141V73.5172V73.4203V73.3234V73.2266V73.1298V73.0331V72.9364V72.8397V72.7431V72.6466V72.55V72.4535V72.3571V72.2607V72.1643V72.068V71.9717V71.8755V71.7793V71.6832V71.587V71.491V71.3949V71.2989V71.203V71.107V71.0112V70.9153V70.8195V70.7237V70.628V70.5323V70.4367V70.3411V70.2455V70.1499V70.0544V69.959V69.8635V69.7681V69.6728V69.5775V69.4822V69.3869V69.2917V69.1965V69.1014V69.0063V68.9112V68.8162V68.7212V68.6262V68.5312V68.4363V68.3415V68.2466V68.1518V68.057V67.9623V67.8676V67.7729V67.6783V67.5837V67.4891V67.3945V67.3V67.2055V67.1111V67.0166V66.9222V66.8279V66.7336V66.6393V66.545V66.4507V66.3565V66.2623V66.1682V66.074V65.9799V65.8859V65.7918V65.6978V65.6038V65.5099V65.4159V65.322V65.2281V65.1343V65.0405V64.9467V64.8529V64.7592V64.6654V64.5717V64.4781V64.3844V64.2908V64.1972V64.1036V64.0101V63.9166V63.8231V63.7296V63.6362V63.5427V63.4493V63.356V63.2626V63.1693V63.076V62.9827V62.8894V62.7962V62.703V62.6098V62.5166V62.4234V62.3303V62.2372V62.1441V62.051V61.958V61.8649V61.7719V61.6789V61.5859V61.493V61.4V61.3071V61.2142V61.1213V61.0285V60.9356V60.8428V60.75V60.6572V60.5645V60.4717V60.379V60.2862V60.1935V60.1008V60.0082V59.9155V59.8229V59.7303V59.6376V59.5451V59.4525V59.3599V59.2674V59.1748V59.0823V58.9898V58.8973V58.8048V58.7124V58.6199V58.5275V58.435V58.3426V58.2502V58.1578V58.0655V57.9731V57.8808V57.7884V57.6961V57.6038V57.5115V57.4192V57.3269V57.2346V57.1423V57.0501V56.9578V56.8656V56.7734V56.6812V56.589V56.4967V56.4046V56.3124V56.2202V56.128V56.0359V55.9437V55.8516V55.7595V55.6673V55.5752V55.4831V55.391V55.2989V55.2068V55.1147V55.0226V54.9305V54.8385V54.7464V54.6544V54.5623V54.4702V54.3782V54.2861V54.1941V54.1021V54.01V53.918V53.826V53.734V53.6419V53.5499V53.4579V53.3659V53.2739V53.1819V53.0899V52.9979V52.9059V52.8139V52.7219V52.6299V52.5379V52.4459V52.3539V52.2619V52.1699V52.0779V51.9859V51.8939V51.8019V51.7099V51.6179V51.5259V51.4339V51.3419V51.2498V51.1578V51.0658V50.9738V50.8818V50.7897V50.6977V50.6057V50.5136V50.4216V50.3296V50.2375V50.1455V50.0534V49.9613V49.8693V49.7772V49.6851V49.5931V49.501V49.4089V49.3168V49.2247V49.1325V49.0404V48.9483V48.8562V48.764V48.6719V48.5797V48.4876V48.3954V48.3032V48.211V48.1188V48.0266V47.9344V47.8422V47.7499V47.6577V47.5654V47.4732V47.3809V47.2886V47.1963V47.104V47.0117V46.9193V46.827V46.7347V46.6423V46.5499V46.4575V46.3651V46.2727V46.1803V46.0879V45.9954V45.9029V45.8105V45.718V45.6255V45.5329V45.4404V45.3479V45.2553V45.1627V45.0701V44.9775V44.8849V44.7922V44.6996V44.6069V44.5142V44.4215V44.3288V44.2361V44.1433V44.0505V43.9577V43.8649V43.7721V43.6793V43.5864V43.4935V43.4006V43.3077V43.2148V43.1218V43.0289V42.9359V42.8428V42.7498V42.6568V42.5637V42.4706V42.3775V42.2843V42.1912V42.098V42.0048V41.9116V41.8183V41.7251V41.6318V41.5385V41.4451V41.3518V41.2584V41.165V41.0716V40.9781V40.8847V40.7912V40.6977V40.6041V40.5105V40.4169V40.3233V40.2297V40.136V40.0423V39.9486V39.8549V39.7611V39.6673V39.5735V39.4796V39.3857V39.2918V39.1979V39.1039V39.0099V38.9159V38.8219V38.7278V38.6337V38.5396V38.4454V38.3512V38.257V38.1628V38.0685V37.9742V37.8799V37.7855V37.6911V37.5967V37.5022V37.4077V37.3132V37.2187V37.1241V37.0295V36.9348V36.8402V36.7455V36.6507V36.5559V36.4611V36.3663V36.2714V36.1765V36.0816V35.9866V35.8916V35.7966V35.7015V35.6064V35.5112V35.416V35.3208V35.2256V35.1303V35.035V34.9396V34.8442V34.7488V34.6533V34.5578V34.4623V34.3667V34.2711V34.1754V34.0797V33.984V33.8882V33.7924V33.6966V33.6007V33.5048V33.4088V33.3128V33.2168V33.1207V33.0246V32.9285V32.8323V32.736V32.6397V32.5434V32.4471V32.3507V32.2542V32.1577V32.0612V31.9646V31.868V31.7714V31.6747V31.5779V31.4812V31.3843V31.2875V31.1906V31.0936V30.9966V30.8996V30.8025V30.7054V30.6082V30.511V30.4137V30.3164V30.219V30.1216V30.0242V29.9267V29.8292V29.7316V29.6339V29.5363V29.4385V29.3408V29.2429V29.1451V29.0472V28.9492V28.8512V28.7531V28.655V28.5569V28.4587V28.3604V28.2621Z" stroke="#CA78C2" stroke-width="1.12064"/>
<path d="M9.86863 36.6661C9.86863 22.7404 21.1577 11.4504 35.0831 11.4504H218.308C232.234 11.4504 243.523 22.7404 243.523 36.6661V36.7244V36.7827V36.841V36.8993V36.9576V37.0158V37.0741V37.1323V37.1905V37.2487V37.3068V37.365V37.4231V37.4812V37.5394V37.5974V37.6555V37.7136V37.7716V37.8296V37.8876V37.9456V38.0036V38.0616V38.1195V38.1775V38.2354V38.2933V38.3512V38.409V38.4669V38.5248V38.5826V38.6404V38.6982V38.756V38.8137V38.8715V38.9292V38.987V39.0447V39.1024V39.1601V39.2177V39.2754V39.333V39.3907V39.4483V39.5059V39.5635V39.621V39.6786V39.7362V39.7937V39.8512V39.9087V39.9662V40.0237V40.0812V40.1386V40.1961V40.2535V40.3109V40.3683V40.4257V40.4831V40.5404V40.5978V40.6551V40.7125V40.7698V40.8271V40.8844V40.9417V40.9989V41.0562V41.1134V41.1707V41.2279V41.2851V41.3423V41.3995V41.4567V41.5138V41.571V41.6281V41.6852V41.7424V41.7995V41.8566V41.9137V41.9707V42.0278V42.0848V42.1419V42.1989V42.2559V42.313V42.3699V42.4269V42.4839V42.5409V42.5979V42.6548V42.7117V42.7687V42.8256V42.8825V42.9394V42.9963V43.0532V43.11V43.1669V43.2238V43.2806V43.3374V43.3943V43.4511V43.5079V43.5647V43.6215V43.6782V43.735V43.7918V43.8485V43.9053V43.962V44.0187V44.0755V44.1322V44.1889V44.2456V44.3022V44.3589V44.4156V44.4723V44.5289V44.5856V44.6422V44.6988V44.7554V44.8121V44.8687V44.9253V44.9819V45.0384V45.095V45.1516V45.2082V45.2647V45.3213V45.3778V45.4343V45.4909V45.5474V45.6039V45.6604V45.7169V45.7734V45.8299V45.8864V45.9429V45.9993V46.0558V46.1123V46.1687V46.2252V46.2816V46.338V46.3945V46.4509V46.5073V46.5637V46.6201V46.6765V46.7329V46.7893V46.8457V46.9021V46.9585V47.0148V47.0712V47.1276V47.1839V47.2403V47.2966V47.353V47.4093V47.4656V47.522V47.5783V47.6346V47.6909V47.7472V47.8035V47.8599V47.9162V47.9724V48.0287V48.085V48.1413V48.1976V48.2539V48.3101V48.3664V48.4227V48.4789V48.5352V48.5915V48.6477V48.704V48.7602V48.8165V48.8727V48.929V48.9852V49.0414V49.0977V49.1539V49.2101V49.2663V49.3226V49.3788V49.435V49.4912V49.5474V49.6036V49.6598V49.7161V49.7723V49.8285V49.8847V49.9409V49.9971V50.0533V50.1095V50.1657V50.2219V50.2781V50.3342V50.3904V50.4466V50.5028V50.559V50.6152V50.6714V50.7276V50.7838V50.8399V50.8961V50.9523V51.0085V51.0647V51.1209V51.177V51.2332V51.2894V51.3456V51.4018V51.458V51.5141V51.5703V51.6265V51.6827V51.7389V51.7951V51.8513V51.9074V51.9636V52.0198V52.076V52.1322V52.1884V52.2446V52.3008V52.357V52.4132V52.4694V52.5256V52.5818V52.638V52.6942V52.7504V52.8066V52.8628V52.919V52.9752V53.0314V53.0877V53.1439V53.2001V53.2563V53.3126V53.3688V53.425V53.4813V53.5375V53.5937V53.65V53.7062V53.7625V53.8187V53.875V53.9312V53.9875V54.0438V54.1V54.1563V54.2126V54.2689V54.3251V54.3814V54.4377V54.494V54.5503V54.6066V54.6629V54.7192V54.7755V54.8318V54.8882V54.9445V55.0008V55.0571V55.1135V55.1698V55.2262V55.2825V55.3389V55.3952V55.4516V55.508V55.5644V55.6207V55.6771V55.7335V55.7899V55.8463V55.9027V55.9591V56.0155V56.072V56.1284V56.1848V56.2413V56.2977V56.3542V56.4106V56.4671V56.5236V56.5801V56.6365V56.693V56.7495V56.806V56.8625V56.9191V56.9756V57.0321V57.0886V57.1452V57.2017V57.2583V57.3149V57.3714V57.428V57.4846V57.5412V57.5978V57.6544V57.711V57.7676V57.8243V57.8809V57.9375V57.9942V58.0509V58.1075V58.1642V58.2209V58.2776V58.3343V58.391V58.4477V58.5044V58.5612V58.6179V58.6747V58.7314V58.7882V58.845V58.9018V58.9586V59.0154V59.0722V59.129V59.1858V59.2427V59.2995V59.3564V59.4133V59.4702V59.527V59.5839V59.6409V59.6978V59.7547V59.8116V59.8686V59.9256V59.9825V60.0395V60.0965V60.1535V60.2105V60.2675V60.3246V60.3816V60.4387V60.4957V60.5528V60.6099V60.667V60.7241V60.7812V60.8383V60.8955V60.9526V61.0098V61.067V61.1241V61.1813V61.2386V61.2958V61.353V61.4103V61.4675V61.5248V61.5821V61.6394V61.6967V61.754V61.8113V61.8686V61.926V61.9834V62.0407V62.0981V62.1555V62.213V62.2704V62.3278V62.3853V62.4427V62.5002V62.5577V62.6152V62.6728V62.7303V62.7878V62.8454V62.903V62.9606V63.0182V63.0758V63.1334V63.191V63.2487V63.3064V63.3641V63.4218V63.4795V63.5372V63.5949V63.6527V63.7105V63.7682V63.826V63.8839V63.9417V63.9995V64.0574V64.1153V64.1732V64.2311V64.289V64.3469V64.4049V64.4628V64.5208V64.5788V64.6368V64.6948V64.7529V64.8109V64.869V64.9271V64.9852V65.0433V65.1015V65.1596V65.2178V65.276V65.3342V65.3924V65.4506V65.5089V65.5671V65.6254V65.6837V65.742V65.8004C243.523 79.7261 232.234 91.0161 218.308 91.0161H35.0831C21.1577 91.0161 9.86863 79.7261 9.86863 65.8004V65.742V65.6837V65.6254V65.5671V65.5089V65.4506V65.3924V65.3342V65.276V65.2178V65.1596V65.1015V65.0433V64.9852V64.9271V64.869V64.8109V64.7529V64.6948V64.6368V64.5788V64.5208V64.4628V64.4049V64.3469V64.289V64.2311V64.1732V64.1153V64.0574V63.9995V63.9417V63.8839V63.826V63.7682V63.7105V63.6527V63.5949V63.5372V63.4795V63.4218V63.3641V63.3064V63.2487V63.191V63.1334V63.0758V63.0182V62.9606V62.903V62.8454V62.7878V62.7303V62.6728V62.6152V62.5577V62.5002V62.4427V62.3853V62.3278V62.2704V62.213V62.1555V62.0981V62.0407V61.9834V61.926V61.8686V61.8113V61.754V61.6967V61.6394V61.5821V61.5248V61.4675V61.4103V61.353V61.2958V61.2386V61.1813V61.1241V61.067V61.0098V60.9526V60.8955V60.8383V60.7812V60.7241V60.667V60.6099V60.5528V60.4957V60.4387V60.3816V60.3246V60.2675V60.2105V60.1535V60.0965V60.0395V59.9825V59.9256V59.8686V59.8116V59.7547V59.6978V59.6409V59.5839V59.527V59.4702V59.4133V59.3564V59.2995V59.2427V59.1858V59.129V59.0722V59.0154V58.9586V58.9018V58.845V58.7882V58.7314V58.6747V58.6179V58.5612V58.5044V58.4477V58.391V58.3343V58.2776V58.2209V58.1642V58.1075V58.0509V57.9942V57.9375V57.8809V57.8243V57.7676V57.711V57.6544V57.5978V57.5412V57.4846V57.428V57.3714V57.3149V57.2583V57.2017V57.1452V57.0886V57.0321V56.9756V56.9191V56.8625V56.806V56.7495V56.693V56.6365V56.5801V56.5236V56.4671V56.4106V56.3542V56.2977V56.2413V56.1848V56.1284V56.072V56.0155V55.9591V55.9027V55.8463V55.7899V55.7335V55.6771V55.6207V55.5644V55.508V55.4516V55.3952V55.3389V55.2825V55.2262V55.1698V55.1135V55.0571V55.0008V54.9445V54.8882V54.8318V54.7755V54.7192V54.6629V54.6066V54.5503V54.494V54.4377V54.3814V54.3251V54.2689V54.2126V54.1563V54.1V54.0438V53.9875V53.9312V53.875V53.8187V53.7625V53.7062V53.65V53.5937V53.5375V53.4813V53.425V53.3688V53.3126V53.2563V53.2001V53.1439V53.0877V53.0314V52.9752V52.919V52.8628V52.8066V52.7504V52.6942V52.638V52.5818V52.5256V52.4694V52.4132V52.357V52.3008V52.2446V52.1884V52.1322V52.076V52.0198V51.9636V51.9074V51.8513V51.7951V51.7389V51.6827V51.6265V51.5703V51.5141V51.458V51.4018V51.3456V51.2894V51.2332V51.177V51.1209V51.0647V51.0085V50.9523V50.8961V50.8399V50.7838V50.7276V50.6714V50.6152V50.559V50.5028V50.4466V50.3904V50.3342V50.2781V50.2219V50.1657V50.1095V50.0533V49.9971V49.9409V49.8847V49.8285V49.7723V49.7161V49.6598V49.6036V49.5474V49.4912V49.435V49.3788V49.3226V49.2663V49.2101V49.1539V49.0977V49.0414V48.9852V48.929V48.8727V48.8165V48.7602V48.704V48.6477V48.5915V48.5352V48.4789V48.4227V48.3664V48.3101V48.2539V48.1976V48.1413V48.085V48.0287V47.9724V47.9162V47.8599V47.8035V47.7472V47.6909V47.6346V47.5783V47.522V47.4656V47.4093V47.353V47.2966V47.2403V47.1839V47.1276V47.0712V47.0148V46.9585V46.9021V46.8457V46.7893V46.7329V46.6765V46.6201V46.5637V46.5073V46.4509V46.3945V46.338V46.2816V46.2252V46.1687V46.1123V46.0558V45.9993V45.9429V45.8864V45.8299V45.7734V45.7169V45.6604V45.6039V45.5474V45.4909V45.4343V45.3778V45.3213V45.2647V45.2082V45.1516V45.095V45.0384V44.9819V44.9253V44.8687V44.8121V44.7554V44.6988V44.6422V44.5856V44.5289V44.4723V44.4156V44.3589V44.3022V44.2456V44.1889V44.1322V44.0755V44.0187V43.962V43.9053V43.8485V43.7918V43.735V43.6782V43.6215V43.5647V43.5079V43.4511V43.3943V43.3374V43.2806V43.2238V43.1669V43.11V43.0532V42.9963V42.9394V42.8825V42.8256V42.7687V42.7117V42.6548V42.5979V42.5409V42.4839V42.4269V42.3699V42.313V42.2559V42.1989V42.1419V42.0848V42.0278V41.9707V41.9137V41.8566V41.7995V41.7424V41.6852V41.6281V41.571V41.5138V41.4567V41.3995V41.3423V41.2851V41.2279V41.1707V41.1134V41.0562V40.9989V40.9417V40.8844V40.8271V40.7698V40.7125V40.6551V40.5978V40.5404V40.4831V40.4257V40.3683V40.3109V40.2535V40.1961V40.1386V40.0812V40.0237V39.9662V39.9087V39.8512V39.7937V39.7362V39.6786V39.621V39.5635V39.5059V39.4483V39.3907V39.333V39.2754V39.2177V39.1601V39.1024V39.0447V38.987V38.9292V38.8715V38.8137V38.756V38.6982V38.6404V38.5826V38.5248V38.4669V38.409V38.3512V38.2933V38.2354V38.1775V38.1195V38.0616V38.0036V37.9456V37.8876V37.8296V37.7716V37.7136V37.6555V37.5974V37.5394V37.4812V37.4231V37.365V37.3068V37.2487V37.1905V37.1323V37.0741V37.0158V36.9576V36.8993V36.841V36.7827V36.7244V36.6661Z" fill="#F5F5F5"/>
<path d="M9.86863 36.6661C9.86863 22.7404 21.1577 11.4504 35.0831 11.4504H218.308C232.234 11.4504 243.523 22.7404 243.523 36.6661V36.7244V36.7827V36.841V36.8993V36.9576V37.0158V37.0741V37.1323V37.1905V37.2487V37.3068V37.365V37.4231V37.4812V37.5394V37.5974V37.6555V37.7136V37.7716V37.8296V37.8876V37.9456V38.0036V38.0616V38.1195V38.1775V38.2354V38.2933V38.3512V38.409V38.4669V38.5248V38.5826V38.6404V38.6982V38.756V38.8137V38.8715V38.9292V38.987V39.0447V39.1024V39.1601V39.2177V39.2754V39.333V39.3907V39.4483V39.5059V39.5635V39.621V39.6786V39.7362V39.7937V39.8512V39.9087V39.9662V40.0237V40.0812V40.1386V40.1961V40.2535V40.3109V40.3683V40.4257V40.4831V40.5404V40.5978V40.6551V40.7125V40.7698V40.8271V40.8844V40.9417V40.9989V41.0562V41.1134V41.1707V41.2279V41.2851V41.3423V41.3995V41.4567V41.5138V41.571V41.6281V41.6852V41.7424V41.7995V41.8566V41.9137V41.9707V42.0278V42.0848V42.1419V42.1989V42.2559V42.313V42.3699V42.4269V42.4839V42.5409V42.5979V42.6548V42.7117V42.7687V42.8256V42.8825V42.9394V42.9963V43.0532V43.11V43.1669V43.2238V43.2806V43.3374V43.3943V43.4511V43.5079V43.5647V43.6215V43.6782V43.735V43.7918V43.8485V43.9053V43.962V44.0187V44.0755V44.1322V44.1889V44.2456V44.3022V44.3589V44.4156V44.4723V44.5289V44.5856V44.6422V44.6988V44.7554V44.8121V44.8687V44.9253V44.9819V45.0384V45.095V45.1516V45.2082V45.2647V45.3213V45.3778V45.4343V45.4909V45.5474V45.6039V45.6604V45.7169V45.7734V45.8299V45.8864V45.9429V45.9993V46.0558V46.1123V46.1687V46.2252V46.2816V46.338V46.3945V46.4509V46.5073V46.5637V46.6201V46.6765V46.7329V46.7893V46.8457V46.9021V46.9585V47.0148V47.0712V47.1276V47.1839V47.2403V47.2966V47.353V47.4093V47.4656V47.522V47.5783V47.6346V47.6909V47.7472V47.8035V47.8599V47.9162V47.9724V48.0287V48.085V48.1413V48.1976V48.2539V48.3101V48.3664V48.4227V48.4789V48.5352V48.5915V48.6477V48.704V48.7602V48.8165V48.8727V48.929V48.9852V49.0414V49.0977V49.1539V49.2101V49.2663V49.3226V49.3788V49.435V49.4912V49.5474V49.6036V49.6598V49.7161V49.7723V49.8285V49.8847V49.9409V49.9971V50.0533V50.1095V50.1657V50.2219V50.2781V50.3342V50.3904V50.4466V50.5028V50.559V50.6152V50.6714V50.7276V50.7838V50.8399V50.8961V50.9523V51.0085V51.0647V51.1209V51.177V51.2332V51.2894V51.3456V51.4018V51.458V51.5141V51.5703V51.6265V51.6827V51.7389V51.7951V51.8513V51.9074V51.9636V52.0198V52.076V52.1322V52.1884V52.2446V52.3008V52.357V52.4132V52.4694V52.5256V52.5818V52.638V52.6942V52.7504V52.8066V52.8628V52.919V52.9752V53.0314V53.0877V53.1439V53.2001V53.2563V53.3126V53.3688V53.425V53.4813V53.5375V53.5937V53.65V53.7062V53.7625V53.8187V53.875V53.9312V53.9875V54.0438V54.1V54.1563V54.2126V54.2689V54.3251V54.3814V54.4377V54.494V54.5503V54.6066V54.6629V54.7192V54.7755V54.8318V54.8882V54.9445V55.0008V55.0571V55.1135V55.1698V55.2262V55.2825V55.3389V55.3952V55.4516V55.508V55.5644V55.6207V55.6771V55.7335V55.7899V55.8463V55.9027V55.9591V56.0155V56.072V56.1284V56.1848V56.2413V56.2977V56.3542V56.4106V56.4671V56.5236V56.5801V56.6365V56.693V56.7495V56.806V56.8625V56.9191V56.9756V57.0321V57.0886V57.1452V57.2017V57.2583V57.3149V57.3714V57.428V57.4846V57.5412V57.5978V57.6544V57.711V57.7676V57.8243V57.8809V57.9375V57.9942V58.0509V58.1075V58.1642V58.2209V58.2776V58.3343V58.391V58.4477V58.5044V58.5612V58.6179V58.6747V58.7314V58.7882V58.845V58.9018V58.9586V59.0154V59.0722V59.129V59.1858V59.2427V59.2995V59.3564V59.4133V59.4702V59.527V59.5839V59.6409V59.6978V59.7547V59.8116V59.8686V59.9256V59.9825V60.0395V60.0965V60.1535V60.2105V60.2675V60.3246V60.3816V60.4387V60.4957V60.5528V60.6099V60.667V60.7241V60.7812V60.8383V60.8955V60.9526V61.0098V61.067V61.1241V61.1813V61.2386V61.2958V61.353V61.4103V61.4675V61.5248V61.5821V61.6394V61.6967V61.754V61.8113V61.8686V61.926V61.9834V62.0407V62.0981V62.1555V62.213V62.2704V62.3278V62.3853V62.4427V62.5002V62.5577V62.6152V62.6728V62.7303V62.7878V62.8454V62.903V62.9606V63.0182V63.0758V63.1334V63.191V63.2487V63.3064V63.3641V63.4218V63.4795V63.5372V63.5949V63.6527V63.7105V63.7682V63.826V63.8839V63.9417V63.9995V64.0574V64.1153V64.1732V64.2311V64.289V64.3469V64.4049V64.4628V64.5208V64.5788V64.6368V64.6948V64.7529V64.8109V64.869V64.9271V64.9852V65.0433V65.1015V65.1596V65.2178V65.276V65.3342V65.3924V65.4506V65.5089V65.5671V65.6254V65.6837V65.742V65.8004C243.523 79.7261 232.234 91.0161 218.308 91.0161H35.0831C21.1577 91.0161 9.86863 79.7261 9.86863 65.8004V65.742V65.6837V65.6254V65.5671V65.5089V65.4506V65.3924V65.3342V65.276V65.2178V65.1596V65.1015V65.0433V64.9852V64.9271V64.869V64.8109V64.7529V64.6948V64.6368V64.5788V64.5208V64.4628V64.4049V64.3469V64.289V64.2311V64.1732V64.1153V64.0574V63.9995V63.9417V63.8839V63.826V63.7682V63.7105V63.6527V63.5949V63.5372V63.4795V63.4218V63.3641V63.3064V63.2487V63.191V63.1334V63.0758V63.0182V62.9606V62.903V62.8454V62.7878V62.7303V62.6728V62.6152V62.5577V62.5002V62.4427V62.3853V62.3278V62.2704V62.213V62.1555V62.0981V62.0407V61.9834V61.926V61.8686V61.8113V61.754V61.6967V61.6394V61.5821V61.5248V61.4675V61.4103V61.353V61.2958V61.2386V61.1813V61.1241V61.067V61.0098V60.9526V60.8955V60.8383V60.7812V60.7241V60.667V60.6099V60.5528V60.4957V60.4387V60.3816V60.3246V60.2675V60.2105V60.1535V60.0965V60.0395V59.9825V59.9256V59.8686V59.8116V59.7547V59.6978V59.6409V59.5839V59.527V59.4702V59.4133V59.3564V59.2995V59.2427V59.1858V59.129V59.0722V59.0154V58.9586V58.9018V58.845V58.7882V58.7314V58.6747V58.6179V58.5612V58.5044V58.4477V58.391V58.3343V58.2776V58.2209V58.1642V58.1075V58.0509V57.9942V57.9375V57.8809V57.8243V57.7676V57.711V57.6544V57.5978V57.5412V57.4846V57.428V57.3714V57.3149V57.2583V57.2017V57.1452V57.0886V57.0321V56.9756V56.9191V56.8625V56.806V56.7495V56.693V56.6365V56.5801V56.5236V56.4671V56.4106V56.3542V56.2977V56.2413V56.1848V56.1284V56.072V56.0155V55.9591V55.9027V55.8463V55.7899V55.7335V55.6771V55.6207V55.5644V55.508V55.4516V55.3952V55.3389V55.2825V55.2262V55.1698V55.1135V55.0571V55.0008V54.9445V54.8882V54.8318V54.7755V54.7192V54.6629V54.6066V54.5503V54.494V54.4377V54.3814V54.3251V54.2689V54.2126V54.1563V54.1V54.0438V53.9875V53.9312V53.875V53.8187V53.7625V53.7062V53.65V53.5937V53.5375V53.4813V53.425V53.3688V53.3126V53.2563V53.2001V53.1439V53.0877V53.0314V52.9752V52.919V52.8628V52.8066V52.7504V52.6942V52.638V52.5818V52.5256V52.4694V52.4132V52.357V52.3008V52.2446V52.1884V52.1322V52.076V52.0198V51.9636V51.9074V51.8513V51.7951V51.7389V51.6827V51.6265V51.5703V51.5141V51.458V51.4018V51.3456V51.2894V51.2332V51.177V51.1209V51.0647V51.0085V50.9523V50.8961V50.8399V50.7838V50.7276V50.6714V50.6152V50.559V50.5028V50.4466V50.3904V50.3342V50.2781V50.2219V50.1657V50.1095V50.0533V49.9971V49.9409V49.8847V49.8285V49.7723V49.7161V49.6598V49.6036V49.5474V49.4912V49.435V49.3788V49.3226V49.2663V49.2101V49.1539V49.0977V49.0414V48.9852V48.929V48.8727V48.8165V48.7602V48.704V48.6477V48.5915V48.5352V48.4789V48.4227V48.3664V48.3101V48.2539V48.1976V48.1413V48.085V48.0287V47.9724V47.9162V47.8599V47.8035V47.7472V47.6909V47.6346V47.5783V47.522V47.4656V47.4093V47.353V47.2966V47.2403V47.1839V47.1276V47.0712V47.0148V46.9585V46.9021V46.8457V46.7893V46.7329V46.6765V46.6201V46.5637V46.5073V46.4509V46.3945V46.338V46.2816V46.2252V46.1687V46.1123V46.0558V45.9993V45.9429V45.8864V45.8299V45.7734V45.7169V45.6604V45.6039V45.5474V45.4909V45.4343V45.3778V45.3213V45.2647V45.2082V45.1516V45.095V45.0384V44.9819V44.9253V44.8687V44.8121V44.7554V44.6988V44.6422V44.5856V44.5289V44.4723V44.4156V44.3589V44.3022V44.2456V44.1889V44.1322V44.0755V44.0187V43.962V43.9053V43.8485V43.7918V43.735V43.6782V43.6215V43.5647V43.5079V43.4511V43.3943V43.3374V43.2806V43.2238V43.1669V43.11V43.0532V42.9963V42.9394V42.8825V42.8256V42.7687V42.7117V42.6548V42.5979V42.5409V42.4839V42.4269V42.3699V42.313V42.2559V42.1989V42.1419V42.0848V42.0278V41.9707V41.9137V41.8566V41.7995V41.7424V41.6852V41.6281V41.571V41.5138V41.4567V41.3995V41.3423V41.2851V41.2279V41.1707V41.1134V41.0562V40.9989V40.9417V40.8844V40.8271V40.7698V40.7125V40.6551V40.5978V40.5404V40.4831V40.4257V40.3683V40.3109V40.2535V40.1961V40.1386V40.0812V40.0237V39.9662V39.9087V39.8512V39.7937V39.7362V39.6786V39.621V39.5635V39.5059V39.4483V39.3907V39.333V39.2754V39.2177V39.1601V39.1024V39.0447V38.987V38.9292V38.8715V38.8137V38.756V38.6982V38.6404V38.5826V38.5248V38.4669V38.409V38.3512V38.2933V38.2354V38.1775V38.1195V38.0616V38.0036V37.9456V37.8876V37.8296V37.7716V37.7136V37.6555V37.5974V37.5394V37.4812V37.4231V37.365V37.3068V37.2487V37.1905V37.1323V37.0741V37.0158V36.9576V36.8993V36.841V36.7827V36.7244V36.6661Z" stroke="#AD3FD5" stroke-width="5.60322"/>
<path d="M9.86863 36.6661C9.86863 22.7404 21.1577 11.4504 35.0831 11.4504H218.308C232.234 11.4504 243.523 22.7404 243.523 36.6661V36.7244V36.7827V36.841V36.8993V36.9576V37.0158V37.0741V37.1323V37.1905V37.2487V37.3068V37.365V37.4231V37.4812V37.5394V37.5974V37.6555V37.7136V37.7716V37.8296V37.8876V37.9456V38.0036V38.0616V38.1195V38.1775V38.2354V38.2933V38.3512V38.409V38.4669V38.5248V38.5826V38.6404V38.6982V38.756V38.8137V38.8715V38.9292V38.987V39.0447V39.1024V39.1601V39.2177V39.2754V39.333V39.3907V39.4483V39.5059V39.5635V39.621V39.6786V39.7362V39.7937V39.8512V39.9087V39.9662V40.0237V40.0812V40.1386V40.1961V40.2535V40.3109V40.3683V40.4257V40.4831V40.5404V40.5978V40.6551V40.7125V40.7698V40.8271V40.8844V40.9417V40.9989V41.0562V41.1134V41.1707V41.2279V41.2851V41.3423V41.3995V41.4567V41.5138V41.571V41.6281V41.6852V41.7424V41.7995V41.8566V41.9137V41.9707V42.0278V42.0848V42.1419V42.1989V42.2559V42.313V42.3699V42.4269V42.4839V42.5409V42.5979V42.6548V42.7117V42.7687V42.8256V42.8825V42.9394V42.9963V43.0532V43.11V43.1669V43.2238V43.2806V43.3374V43.3943V43.4511V43.5079V43.5647V43.6215V43.6782V43.735V43.7918V43.8485V43.9053V43.962V44.0187V44.0755V44.1322V44.1889V44.2456V44.3022V44.3589V44.4156V44.4723V44.5289V44.5856V44.6422V44.6988V44.7554V44.8121V44.8687V44.9253V44.9819V45.0384V45.095V45.1516V45.2082V45.2647V45.3213V45.3778V45.4343V45.4909V45.5474V45.6039V45.6604V45.7169V45.7734V45.8299V45.8864V45.9429V45.9993V46.0558V46.1123V46.1687V46.2252V46.2816V46.338V46.3945V46.4509V46.5073V46.5637V46.6201V46.6765V46.7329V46.7893V46.8457V46.9021V46.9585V47.0148V47.0712V47.1276V47.1839V47.2403V47.2966V47.353V47.4093V47.4656V47.522V47.5783V47.6346V47.6909V47.7472V47.8035V47.8599V47.9162V47.9724V48.0287V48.085V48.1413V48.1976V48.2539V48.3101V48.3664V48.4227V48.4789V48.5352V48.5915V48.6477V48.704V48.7602V48.8165V48.8727V48.929V48.9852V49.0414V49.0977V49.1539V49.2101V49.2663V49.3226V49.3788V49.435V49.4912V49.5474V49.6036V49.6598V49.7161V49.7723V49.8285V49.8847V49.9409V49.9971V50.0533V50.1095V50.1657V50.2219V50.2781V50.3342V50.3904V50.4466V50.5028V50.559V50.6152V50.6714V50.7276V50.7838V50.8399V50.8961V50.9523V51.0085V51.0647V51.1209V51.177V51.2332V51.2894V51.3456V51.4018V51.458V51.5141V51.5703V51.6265V51.6827V51.7389V51.7951V51.8513V51.9074V51.9636V52.0198V52.076V52.1322V52.1884V52.2446V52.3008V52.357V52.4132V52.4694V52.5256V52.5818V52.638V52.6942V52.7504V52.8066V52.8628V52.919V52.9752V53.0314V53.0877V53.1439V53.2001V53.2563V53.3126V53.3688V53.425V53.4813V53.5375V53.5937V53.65V53.7062V53.7625V53.8187V53.875V53.9312V53.9875V54.0438V54.1V54.1563V54.2126V54.2689V54.3251V54.3814V54.4377V54.494V54.5503V54.6066V54.6629V54.7192V54.7755V54.8318V54.8882V54.9445V55.0008V55.0571V55.1135V55.1698V55.2262V55.2825V55.3389V55.3952V55.4516V55.508V55.5644V55.6207V55.6771V55.7335V55.7899V55.8463V55.9027V55.9591V56.0155V56.072V56.1284V56.1848V56.2413V56.2977V56.3542V56.4106V56.4671V56.5236V56.5801V56.6365V56.693V56.7495V56.806V56.8625V56.9191V56.9756V57.0321V57.0886V57.1452V57.2017V57.2583V57.3149V57.3714V57.428V57.4846V57.5412V57.5978V57.6544V57.711V57.7676V57.8243V57.8809V57.9375V57.9942V58.0509V58.1075V58.1642V58.2209V58.2776V58.3343V58.391V58.4477V58.5044V58.5612V58.6179V58.6747V58.7314V58.7882V58.845V58.9018V58.9586V59.0154V59.0722V59.129V59.1858V59.2427V59.2995V59.3564V59.4133V59.4702V59.527V59.5839V59.6409V59.6978V59.7547V59.8116V59.8686V59.9256V59.9825V60.0395V60.0965V60.1535V60.2105V60.2675V60.3246V60.3816V60.4387V60.4957V60.5528V60.6099V60.667V60.7241V60.7812V60.8383V60.8955V60.9526V61.0098V61.067V61.1241V61.1813V61.2386V61.2958V61.353V61.4103V61.4675V61.5248V61.5821V61.6394V61.6967V61.754V61.8113V61.8686V61.926V61.9834V62.0407V62.0981V62.1555V62.213V62.2704V62.3278V62.3853V62.4427V62.5002V62.5577V62.6152V62.6728V62.7303V62.7878V62.8454V62.903V62.9606V63.0182V63.0758V63.1334V63.191V63.2487V63.3064V63.3641V63.4218V63.4795V63.5372V63.5949V63.6527V63.7105V63.7682V63.826V63.8839V63.9417V63.9995V64.0574V64.1153V64.1732V64.2311V64.289V64.3469V64.4049V64.4628V64.5208V64.5788V64.6368V64.6948V64.7529V64.8109V64.869V64.9271V64.9852V65.0433V65.1015V65.1596V65.2178V65.276V65.3342V65.3924V65.4506V65.5089V65.5671V65.6254V65.6837V65.742V65.8004C243.523 79.7261 232.234 91.0161 218.308 91.0161H35.0831C21.1577 91.0161 9.86863 79.7261 9.86863 65.8004V65.742V65.6837V65.6254V65.5671V65.5089V65.4506V65.3924V65.3342V65.276V65.2178V65.1596V65.1015V65.0433V64.9852V64.9271V64.869V64.8109V64.7529V64.6948V64.6368V64.5788V64.5208V64.4628V64.4049V64.3469V64.289V64.2311V64.1732V64.1153V64.0574V63.9995V63.9417V63.8839V63.826V63.7682V63.7105V63.6527V63.5949V63.5372V63.4795V63.4218V63.3641V63.3064V63.2487V63.191V63.1334V63.0758V63.0182V62.9606V62.903V62.8454V62.7878V62.7303V62.6728V62.6152V62.5577V62.5002V62.4427V62.3853V62.3278V62.2704V62.213V62.1555V62.0981V62.0407V61.9834V61.926V61.8686V61.8113V61.754V61.6967V61.6394V61.5821V61.5248V61.4675V61.4103V61.353V61.2958V61.2386V61.1813V61.1241V61.067V61.0098V60.9526V60.8955V60.8383V60.7812V60.7241V60.667V60.6099V60.5528V60.4957V60.4387V60.3816V60.3246V60.2675V60.2105V60.1535V60.0965V60.0395V59.9825V59.9256V59.8686V59.8116V59.7547V59.6978V59.6409V59.5839V59.527V59.4702V59.4133V59.3564V59.2995V59.2427V59.1858V59.129V59.0722V59.0154V58.9586V58.9018V58.845V58.7882V58.7314V58.6747V58.6179V58.5612V58.5044V58.4477V58.391V58.3343V58.2776V58.2209V58.1642V58.1075V58.0509V57.9942V57.9375V57.8809V57.8243V57.7676V57.711V57.6544V57.5978V57.5412V57.4846V57.428V57.3714V57.3149V57.2583V57.2017V57.1452V57.0886V57.0321V56.9756V56.9191V56.8625V56.806V56.7495V56.693V56.6365V56.5801V56.5236V56.4671V56.4106V56.3542V56.2977V56.2413V56.1848V56.1284V56.072V56.0155V55.9591V55.9027V55.8463V55.7899V55.7335V55.6771V55.6207V55.5644V55.508V55.4516V55.3952V55.3389V55.2825V55.2262V55.1698V55.1135V55.0571V55.0008V54.9445V54.8882V54.8318V54.7755V54.7192V54.6629V54.6066V54.5503V54.494V54.4377V54.3814V54.3251V54.2689V54.2126V54.1563V54.1V54.0438V53.9875V53.9312V53.875V53.8187V53.7625V53.7062V53.65V53.5937V53.5375V53.4813V53.425V53.3688V53.3126V53.2563V53.2001V53.1439V53.0877V53.0314V52.9752V52.919V52.8628V52.8066V52.7504V52.6942V52.638V52.5818V52.5256V52.4694V52.4132V52.357V52.3008V52.2446V52.1884V52.1322V52.076V52.0198V51.9636V51.9074V51.8513V51.7951V51.7389V51.6827V51.6265V51.5703V51.5141V51.458V51.4018V51.3456V51.2894V51.2332V51.177V51.1209V51.0647V51.0085V50.9523V50.8961V50.8399V50.7838V50.7276V50.6714V50.6152V50.559V50.5028V50.4466V50.3904V50.3342V50.2781V50.2219V50.1657V50.1095V50.0533V49.9971V49.9409V49.8847V49.8285V49.7723V49.7161V49.6598V49.6036V49.5474V49.4912V49.435V49.3788V49.3226V49.2663V49.2101V49.1539V49.0977V49.0414V48.9852V48.929V48.8727V48.8165V48.7602V48.704V48.6477V48.5915V48.5352V48.4789V48.4227V48.3664V48.3101V48.2539V48.1976V48.1413V48.085V48.0287V47.9724V47.9162V47.8599V47.8035V47.7472V47.6909V47.6346V47.5783V47.522V47.4656V47.4093V47.353V47.2966V47.2403V47.1839V47.1276V47.0712V47.0148V46.9585V46.9021V46.8457V46.7893V46.7329V46.6765V46.6201V46.5637V46.5073V46.4509V46.3945V46.338V46.2816V46.2252V46.1687V46.1123V46.0558V45.9993V45.9429V45.8864V45.8299V45.7734V45.7169V45.6604V45.6039V45.5474V45.4909V45.4343V45.3778V45.3213V45.2647V45.2082V45.1516V45.095V45.0384V44.9819V44.9253V44.8687V44.8121V44.7554V44.6988V44.6422V44.5856V44.5289V44.4723V44.4156V44.3589V44.3022V44.2456V44.1889V44.1322V44.0755V44.0187V43.962V43.9053V43.8485V43.7918V43.735V43.6782V43.6215V43.5647V43.5079V43.4511V43.3943V43.3374V43.2806V43.2238V43.1669V43.11V43.0532V42.9963V42.9394V42.8825V42.8256V42.7687V42.7117V42.6548V42.5979V42.5409V42.4839V42.4269V42.3699V42.313V42.2559V42.1989V42.1419V42.0848V42.0278V41.9707V41.9137V41.8566V41.7995V41.7424V41.6852V41.6281V41.571V41.5138V41.4567V41.3995V41.3423V41.2851V41.2279V41.1707V41.1134V41.0562V40.9989V40.9417V40.8844V40.8271V40.7698V40.7125V40.6551V40.5978V40.5404V40.4831V40.4257V40.3683V40.3109V40.2535V40.1961V40.1386V40.0812V40.0237V39.9662V39.9087V39.8512V39.7937V39.7362V39.6786V39.621V39.5635V39.5059V39.4483V39.3907V39.333V39.2754V39.2177V39.1601V39.1024V39.0447V38.987V38.9292V38.8715V38.8137V38.756V38.6982V38.6404V38.5826V38.5248V38.4669V38.409V38.3512V38.2933V38.2354V38.1775V38.1195V38.0616V38.0036V37.9456V37.8876V37.8296V37.7716V37.7136V37.6555V37.5974V37.5394V37.4812V37.4231V37.365V37.3068V37.2487V37.1905V37.1323V37.0741V37.0158V36.9576V36.8993V36.841V36.7827V36.7244V36.6661Z" stroke="#D887D0" stroke-width="5.60322"/>
</svg>
